<svg xmlns="http://www.w3.org/2000/svg"  viewBox="0 0 16 16" width="512px" height="512px"><path d="M12.75 4h-3.5V3H14c0-.552-.448-1-1-1H9.25C8.56 2 8 2.56 8 3.25v.5C8 4.44 8.56 5 9.25 5h3.5v1H8c0 .552.448 1 1 1h3.75C13.44 7 14 6.44 14 5.75v-.5C14 4.56 13.44 4 12.75 4zM2.25 3H7c0-.552-.448-1-1-1H2.25C1.56 2 1 2.56 1 3.25v2.5C1 6.44 1.56 7 2.25 7H6c.552 0 1-.448 1-1H2.25V3zM4.25 12h1.5v1h-3.5v-3H7c0-.552-.448-1-1-1H2.25C1.56 9 1 9.56 1 10.25v2.5C1 13.44 1.56 14 2.25 14H6c.552 0 1-.448 1-1v-2H3.25C3.25 11.552 3.698 12 4.25 12zM12.75 9h-3.5C8.56 9 8 9.56 8 10.25v2.5C8 13.44 8.56 14 9.25 14h3.5c.69 0 1.25-.56 1.25-1.25v-2.5C14 9.56 13.44 9 12.75 9zM12.75 13h-3.5v-3h3.5V13z"/></svg>