<svg xmlns="http://www.w3.org/2000/svg"  viewBox="0 0 16 16" width="512px" height="512px"><path d="M 2.0625 1.015625 L 7.5 6 L 10 3.2988281 L 12 5.3203125 L 12 10 L 14 12 L 14 6.421875 C 14 5.973875 13.821859 5.5455156 13.505859 5.2285156 L 9.7871094 1.5097656 C 9.4711094 1.1937656 9.04075 1.015625 8.59375 1.015625 L 2.0625 1.015625 z M 10.707031 1.015625 L 14 4.3085938 L 14 1.015625 L 10.707031 1.015625 z M 1 2.7421875 L 1 8.5839844 C 1 9.0319844 1.1781406 9.4603438 1.4941406 9.7773438 L 5.2167969 13.5 C 5.5337969 13.817 5.9621563 13.994141 6.4101562 13.994141 L 12.994141 13.994141 L 10 11 L 10 6 L 7.5 8.9707031 L 5 6.4082031 L 5 11.359375 L 3 9.359375 L 3 4.5859375 L 1 2.7421875 z M 1 10.697266 L 1 13.994141 L 4.296875 13.994141 L 1 10.697266 z"/></svg>